<mxfile host="app.diagrams.net" modified="2023-11-12T12:52:58.705Z" agent="Mozilla/5.0 (Windows NT 10.0; Win64; x64) AppleWebKit/537.36 (KHTML, like Gecko) Chrome/119.0.0.0 Safari/537.36 Edg/119.0.0.0" etag="96nJ1InjDpV9B4ChEdOF" version="22.1.0" type="device">
  <diagram name="Страница — 1" id="Me-vtZgJQwkaq6CIfrC5">
    <mxGraphModel dx="1631" dy="2093" grid="1" gridSize="10" guides="1" tooltips="1" connect="1" arrows="1" fold="1" page="1" pageScale="1" pageWidth="827" pageHeight="1169" math="0" shadow="0">
      <root>
        <mxCell id="0" />
        <mxCell id="1" parent="0" />
        <mxCell id="S1n4Vc88zPRwupF9Aiys-1" style="edgeStyle=orthogonalEdgeStyle;rounded=0;orthogonalLoop=1;jettySize=auto;html=1;entryX=0.5;entryY=0;entryDx=0;entryDy=0;" edge="1" parent="1" source="S1n4Vc88zPRwupF9Aiys-2" target="S1n4Vc88zPRwupF9Aiys-7">
          <mxGeometry relative="1" as="geometry" />
        </mxCell>
        <mxCell id="S1n4Vc88zPRwupF9Aiys-2" value="1" style="ellipse;whiteSpace=wrap;html=1;aspect=fixed;" vertex="1" parent="1">
          <mxGeometry x="135" y="180" width="30" height="30" as="geometry" />
        </mxCell>
        <mxCell id="S1n4Vc88zPRwupF9Aiys-3" style="edgeStyle=orthogonalEdgeStyle;rounded=0;orthogonalLoop=1;jettySize=auto;html=1;entryX=0.952;entryY=0.35;entryDx=0;entryDy=0;entryPerimeter=0;exitX=0.556;exitY=0.173;exitDx=0;exitDy=0;exitPerimeter=0;" edge="1" parent="1" source="S1n4Vc88zPRwupF9Aiys-7" target="S1n4Vc88zPRwupF9Aiys-2">
          <mxGeometry relative="1" as="geometry">
            <mxPoint x="230" y="190" as="sourcePoint" />
            <mxPoint x="170" y="190" as="targetPoint" />
          </mxGeometry>
        </mxCell>
        <mxCell id="S1n4Vc88zPRwupF9Aiys-13" style="edgeStyle=orthogonalEdgeStyle;rounded=0;orthogonalLoop=1;jettySize=auto;html=1;exitX=0.5;exitY=1;exitDx=0;exitDy=0;entryX=0;entryY=0.5;entryDx=0;entryDy=0;" edge="1" parent="1" source="S1n4Vc88zPRwupF9Aiys-7" target="S1n4Vc88zPRwupF9Aiys-9">
          <mxGeometry relative="1" as="geometry" />
        </mxCell>
        <mxCell id="S1n4Vc88zPRwupF9Aiys-7" value="" style="rounded=0;whiteSpace=wrap;html=1;gradientColor=none;fillStyle=solid;fillColor=#000000;rotation=-90;" vertex="1" parent="1">
          <mxGeometry x="160" y="190" width="80" height="10" as="geometry" />
        </mxCell>
        <mxCell id="S1n4Vc88zPRwupF9Aiys-15" style="edgeStyle=orthogonalEdgeStyle;rounded=0;orthogonalLoop=1;jettySize=auto;html=1;exitX=1;exitY=0.5;exitDx=0;exitDy=0;entryX=0.5;entryY=0;entryDx=0;entryDy=0;" edge="1" parent="1" source="S1n4Vc88zPRwupF9Aiys-9" target="S1n4Vc88zPRwupF9Aiys-14">
          <mxGeometry relative="1" as="geometry" />
        </mxCell>
        <mxCell id="S1n4Vc88zPRwupF9Aiys-42" style="edgeStyle=orthogonalEdgeStyle;rounded=0;orthogonalLoop=1;jettySize=auto;html=1;exitX=1;exitY=1;exitDx=0;exitDy=0;entryX=0.5;entryY=0;entryDx=0;entryDy=0;curved=1;" edge="1" parent="1" source="S1n4Vc88zPRwupF9Aiys-9" target="S1n4Vc88zPRwupF9Aiys-41">
          <mxGeometry relative="1" as="geometry">
            <Array as="points">
              <mxPoint x="275" y="206" />
              <mxPoint x="275" y="305" />
            </Array>
          </mxGeometry>
        </mxCell>
        <mxCell id="S1n4Vc88zPRwupF9Aiys-9" value="" style="ellipse;whiteSpace=wrap;html=1;aspect=fixed;" vertex="1" parent="1">
          <mxGeometry x="235" y="180" width="30" height="30" as="geometry" />
        </mxCell>
        <mxCell id="S1n4Vc88zPRwupF9Aiys-10" value="&lt;font style=&quot;font-size: 10px;&quot;&gt;t=norm(0.5; 0.2)&lt;/font&gt;" style="text;html=1;strokeColor=none;fillColor=none;align=center;verticalAlign=middle;whiteSpace=wrap;rounded=0;" vertex="1" parent="1">
          <mxGeometry x="160" y="232" width="80" height="20" as="geometry" />
        </mxCell>
        <mxCell id="S1n4Vc88zPRwupF9Aiys-17" style="edgeStyle=orthogonalEdgeStyle;rounded=0;orthogonalLoop=1;jettySize=auto;html=1;exitX=0.5;exitY=1;exitDx=0;exitDy=0;entryX=0;entryY=0.5;entryDx=0;entryDy=0;" edge="1" parent="1" source="S1n4Vc88zPRwupF9Aiys-14" target="S1n4Vc88zPRwupF9Aiys-16">
          <mxGeometry relative="1" as="geometry" />
        </mxCell>
        <mxCell id="S1n4Vc88zPRwupF9Aiys-14" value="" style="rounded=0;whiteSpace=wrap;html=1;gradientColor=none;fillStyle=solid;fillColor=#000000;rotation=-90;" vertex="1" parent="1">
          <mxGeometry x="260" y="190" width="80" height="10" as="geometry" />
        </mxCell>
        <mxCell id="S1n4Vc88zPRwupF9Aiys-24" style="edgeStyle=orthogonalEdgeStyle;rounded=0;orthogonalLoop=1;jettySize=auto;html=1;exitX=1;exitY=0.5;exitDx=0;exitDy=0;entryX=0.5;entryY=0;entryDx=0;entryDy=0;curved=1;" edge="1" parent="1" source="S1n4Vc88zPRwupF9Aiys-16" target="S1n4Vc88zPRwupF9Aiys-21">
          <mxGeometry relative="1" as="geometry">
            <Array as="points">
              <mxPoint x="375" y="195" />
              <mxPoint x="375" y="85" />
            </Array>
          </mxGeometry>
        </mxCell>
        <mxCell id="S1n4Vc88zPRwupF9Aiys-25" style="edgeStyle=orthogonalEdgeStyle;rounded=0;orthogonalLoop=1;jettySize=auto;html=1;exitX=1;exitY=0.5;exitDx=0;exitDy=0;entryX=0.5;entryY=0;entryDx=0;entryDy=0;curved=1;" edge="1" parent="1" source="S1n4Vc88zPRwupF9Aiys-16" target="S1n4Vc88zPRwupF9Aiys-22">
          <mxGeometry relative="1" as="geometry">
            <Array as="points">
              <mxPoint x="375" y="195" />
              <mxPoint x="375" y="305" />
            </Array>
          </mxGeometry>
        </mxCell>
        <mxCell id="S1n4Vc88zPRwupF9Aiys-44" style="edgeStyle=orthogonalEdgeStyle;rounded=0;orthogonalLoop=1;jettySize=auto;html=1;exitX=0.5;exitY=1;exitDx=0;exitDy=0;entryX=0.5;entryY=1;entryDx=0;entryDy=0;curved=1;dashed=1;" edge="1" parent="1" source="S1n4Vc88zPRwupF9Aiys-16" target="S1n4Vc88zPRwupF9Aiys-41">
          <mxGeometry relative="1" as="geometry" />
        </mxCell>
        <mxCell id="S1n4Vc88zPRwupF9Aiys-16" value="" style="ellipse;whiteSpace=wrap;html=1;aspect=fixed;" vertex="1" parent="1">
          <mxGeometry x="334" y="180" width="30" height="30" as="geometry" />
        </mxCell>
        <mxCell id="S1n4Vc88zPRwupF9Aiys-18" value="&lt;font style=&quot;font-size: 10px;&quot;&gt;Надходження пасажирів&lt;/font&gt;" style="text;html=1;strokeColor=none;fillColor=none;align=center;verticalAlign=middle;whiteSpace=wrap;rounded=0;" vertex="1" parent="1">
          <mxGeometry x="160" y="130" width="80" height="20" as="geometry" />
        </mxCell>
        <mxCell id="S1n4Vc88zPRwupF9Aiys-19" value="&lt;font style=&quot;font-size: 10px;&quot;&gt;Чегра&lt;/font&gt;" style="text;html=1;strokeColor=none;fillColor=none;align=center;verticalAlign=middle;whiteSpace=wrap;rounded=0;" vertex="1" parent="1">
          <mxGeometry x="309" y="160" width="80" height="20" as="geometry" />
        </mxCell>
        <mxCell id="S1n4Vc88zPRwupF9Aiys-34" style="edgeStyle=orthogonalEdgeStyle;rounded=0;orthogonalLoop=1;jettySize=auto;html=1;exitX=0.5;exitY=1;exitDx=0;exitDy=0;entryX=0;entryY=0.5;entryDx=0;entryDy=0;" edge="1" parent="1" source="S1n4Vc88zPRwupF9Aiys-21" target="S1n4Vc88zPRwupF9Aiys-33">
          <mxGeometry relative="1" as="geometry" />
        </mxCell>
        <mxCell id="S1n4Vc88zPRwupF9Aiys-21" value="" style="rounded=0;whiteSpace=wrap;html=1;gradientColor=none;fillStyle=solid;fillColor=#000000;rotation=-90;" vertex="1" parent="1">
          <mxGeometry x="365" y="75" width="80" height="20" as="geometry" />
        </mxCell>
        <mxCell id="S1n4Vc88zPRwupF9Aiys-40" style="edgeStyle=orthogonalEdgeStyle;rounded=0;orthogonalLoop=1;jettySize=auto;html=1;exitX=0.5;exitY=1;exitDx=0;exitDy=0;entryX=0;entryY=0.5;entryDx=0;entryDy=0;" edge="1" parent="1" source="S1n4Vc88zPRwupF9Aiys-22" target="S1n4Vc88zPRwupF9Aiys-38">
          <mxGeometry relative="1" as="geometry" />
        </mxCell>
        <mxCell id="S1n4Vc88zPRwupF9Aiys-22" value="" style="rounded=0;whiteSpace=wrap;html=1;gradientColor=none;fillStyle=solid;fillColor=#000000;rotation=-90;" vertex="1" parent="1">
          <mxGeometry x="360" y="300" width="80" height="10" as="geometry" />
        </mxCell>
        <mxCell id="S1n4Vc88zPRwupF9Aiys-29" value="" style="endArrow=none;html=1;rounded=0;" edge="1" parent="1">
          <mxGeometry width="50" height="50" relative="1" as="geometry">
            <mxPoint x="370" y="145" as="sourcePoint" />
            <mxPoint x="380" y="155" as="targetPoint" />
          </mxGeometry>
        </mxCell>
        <mxCell id="S1n4Vc88zPRwupF9Aiys-30" value="" style="endArrow=none;html=1;rounded=0;" edge="1" parent="1">
          <mxGeometry width="50" height="50" relative="1" as="geometry">
            <mxPoint x="380" y="245" as="sourcePoint" />
            <mxPoint x="370" y="255" as="targetPoint" />
          </mxGeometry>
        </mxCell>
        <mxCell id="S1n4Vc88zPRwupF9Aiys-31" value="&lt;font style=&quot;font-size: 10px;&quot;&gt;n&lt;/font&gt;" style="text;html=1;strokeColor=none;fillColor=none;align=center;verticalAlign=middle;whiteSpace=wrap;rounded=0;" vertex="1" parent="1">
          <mxGeometry x="341" y="231" width="60" height="30" as="geometry" />
        </mxCell>
        <mxCell id="S1n4Vc88zPRwupF9Aiys-32" value="&lt;font style=&quot;font-size: 10px;&quot;&gt;n&lt;/font&gt;" style="text;html=1;strokeColor=none;fillColor=none;align=center;verticalAlign=middle;whiteSpace=wrap;rounded=0;" vertex="1" parent="1">
          <mxGeometry x="349" y="131" width="60" height="30" as="geometry" />
        </mxCell>
        <mxCell id="S1n4Vc88zPRwupF9Aiys-36" style="edgeStyle=orthogonalEdgeStyle;rounded=0;orthogonalLoop=1;jettySize=auto;html=1;exitX=1;exitY=0.5;exitDx=0;exitDy=0;entryX=0.5;entryY=0;entryDx=0;entryDy=0;" edge="1" parent="1" source="S1n4Vc88zPRwupF9Aiys-33" target="S1n4Vc88zPRwupF9Aiys-35">
          <mxGeometry relative="1" as="geometry" />
        </mxCell>
        <mxCell id="S1n4Vc88zPRwupF9Aiys-33" value="" style="ellipse;whiteSpace=wrap;html=1;aspect=fixed;" vertex="1" parent="1">
          <mxGeometry x="435" y="70" width="30" height="30" as="geometry" />
        </mxCell>
        <mxCell id="S1n4Vc88zPRwupF9Aiys-47" style="rounded=0;orthogonalLoop=1;jettySize=auto;html=1;exitX=0.5;exitY=1;exitDx=0;exitDy=0;entryX=0;entryY=0;entryDx=0;entryDy=0;" edge="1" parent="1" source="S1n4Vc88zPRwupF9Aiys-35" target="S1n4Vc88zPRwupF9Aiys-46">
          <mxGeometry relative="1" as="geometry" />
        </mxCell>
        <mxCell id="S1n4Vc88zPRwupF9Aiys-75" style="rounded=0;orthogonalLoop=1;jettySize=auto;html=1;exitX=0.75;exitY=1;exitDx=0;exitDy=0;entryX=0;entryY=0.5;entryDx=0;entryDy=0;" edge="1" parent="1" source="S1n4Vc88zPRwupF9Aiys-35" target="S1n4Vc88zPRwupF9Aiys-65">
          <mxGeometry relative="1" as="geometry" />
        </mxCell>
        <mxCell id="S1n4Vc88zPRwupF9Aiys-35" value="" style="rounded=0;whiteSpace=wrap;html=1;gradientColor=none;fillStyle=solid;fillColor=#000000;rotation=-90;" vertex="1" parent="1">
          <mxGeometry x="460" y="80" width="80" height="10" as="geometry" />
        </mxCell>
        <mxCell id="S1n4Vc88zPRwupF9Aiys-37" style="edgeStyle=orthogonalEdgeStyle;rounded=0;orthogonalLoop=1;jettySize=auto;html=1;exitX=1;exitY=0.5;exitDx=0;exitDy=0;entryX=0.5;entryY=0;entryDx=0;entryDy=0;" edge="1" parent="1" source="S1n4Vc88zPRwupF9Aiys-38" target="S1n4Vc88zPRwupF9Aiys-39">
          <mxGeometry relative="1" as="geometry" />
        </mxCell>
        <mxCell id="S1n4Vc88zPRwupF9Aiys-38" value="" style="ellipse;whiteSpace=wrap;html=1;aspect=fixed;" vertex="1" parent="1">
          <mxGeometry x="435" y="290" width="30" height="30" as="geometry" />
        </mxCell>
        <mxCell id="S1n4Vc88zPRwupF9Aiys-48" style="rounded=0;orthogonalLoop=1;jettySize=auto;html=1;exitX=0.5;exitY=1;exitDx=0;exitDy=0;entryX=0;entryY=1;entryDx=0;entryDy=0;" edge="1" parent="1" source="S1n4Vc88zPRwupF9Aiys-39" target="S1n4Vc88zPRwupF9Aiys-46">
          <mxGeometry relative="1" as="geometry" />
        </mxCell>
        <mxCell id="S1n4Vc88zPRwupF9Aiys-77" style="rounded=0;orthogonalLoop=1;jettySize=auto;html=1;exitX=0.25;exitY=1;exitDx=0;exitDy=0;entryX=0;entryY=0.5;entryDx=0;entryDy=0;" edge="1" parent="1" source="S1n4Vc88zPRwupF9Aiys-39" target="S1n4Vc88zPRwupF9Aiys-63">
          <mxGeometry relative="1" as="geometry" />
        </mxCell>
        <mxCell id="S1n4Vc88zPRwupF9Aiys-39" value="" style="rounded=0;whiteSpace=wrap;html=1;gradientColor=none;fillStyle=solid;fillColor=#000000;rotation=-90;" vertex="1" parent="1">
          <mxGeometry x="460" y="300" width="80" height="10" as="geometry" />
        </mxCell>
        <mxCell id="S1n4Vc88zPRwupF9Aiys-68" style="rounded=0;orthogonalLoop=1;jettySize=auto;html=1;exitX=0.25;exitY=1;exitDx=0;exitDy=0;entryX=0;entryY=0.5;entryDx=0;entryDy=0;" edge="1" parent="1" source="S1n4Vc88zPRwupF9Aiys-41" target="S1n4Vc88zPRwupF9Aiys-67">
          <mxGeometry relative="1" as="geometry" />
        </mxCell>
        <mxCell id="S1n4Vc88zPRwupF9Aiys-41" value="" style="rounded=0;whiteSpace=wrap;html=1;gradientColor=none;fillStyle=solid;fillColor=#000000;rotation=-90;" vertex="1" parent="1">
          <mxGeometry x="265" y="295" width="80" height="20" as="geometry" />
        </mxCell>
        <mxCell id="S1n4Vc88zPRwupF9Aiys-46" value="" style="ellipse;whiteSpace=wrap;html=1;aspect=fixed;" vertex="1" parent="1">
          <mxGeometry x="535" y="180" width="30" height="30" as="geometry" />
        </mxCell>
        <mxCell id="S1n4Vc88zPRwupF9Aiys-50" style="rounded=0;orthogonalLoop=1;jettySize=auto;html=1;exitX=0.5;exitY=0;exitDx=0;exitDy=0;entryX=1;entryY=1;entryDx=0;entryDy=0;" edge="1" parent="1" source="S1n4Vc88zPRwupF9Aiys-49" target="S1n4Vc88zPRwupF9Aiys-46">
          <mxGeometry relative="1" as="geometry" />
        </mxCell>
        <mxCell id="S1n4Vc88zPRwupF9Aiys-76" style="rounded=0;orthogonalLoop=1;jettySize=auto;html=1;exitX=0.25;exitY=0;exitDx=0;exitDy=0;entryX=1;entryY=0.5;entryDx=0;entryDy=0;" edge="1" parent="1" source="S1n4Vc88zPRwupF9Aiys-49" target="S1n4Vc88zPRwupF9Aiys-62">
          <mxGeometry relative="1" as="geometry" />
        </mxCell>
        <mxCell id="S1n4Vc88zPRwupF9Aiys-49" value="" style="rounded=0;whiteSpace=wrap;html=1;gradientColor=none;fillStyle=solid;fillColor=#000000;rotation=-90;" vertex="1" parent="1">
          <mxGeometry x="560" y="300" width="80" height="10" as="geometry" />
        </mxCell>
        <mxCell id="S1n4Vc88zPRwupF9Aiys-52" style="rounded=0;orthogonalLoop=1;jettySize=auto;html=1;exitX=0.5;exitY=0;exitDx=0;exitDy=0;entryX=1;entryY=0;entryDx=0;entryDy=0;" edge="1" parent="1" source="S1n4Vc88zPRwupF9Aiys-51" target="S1n4Vc88zPRwupF9Aiys-46">
          <mxGeometry relative="1" as="geometry" />
        </mxCell>
        <mxCell id="S1n4Vc88zPRwupF9Aiys-74" style="rounded=0;orthogonalLoop=1;jettySize=auto;html=1;exitX=0.75;exitY=0;exitDx=0;exitDy=0;entryX=1;entryY=0.5;entryDx=0;entryDy=0;" edge="1" parent="1" source="S1n4Vc88zPRwupF9Aiys-51" target="S1n4Vc88zPRwupF9Aiys-66">
          <mxGeometry relative="1" as="geometry" />
        </mxCell>
        <mxCell id="S1n4Vc88zPRwupF9Aiys-51" value="" style="rounded=0;whiteSpace=wrap;html=1;gradientColor=none;fillStyle=solid;fillColor=#000000;rotation=-90;" vertex="1" parent="1">
          <mxGeometry x="560" y="80" width="80" height="10" as="geometry" />
        </mxCell>
        <mxCell id="S1n4Vc88zPRwupF9Aiys-54" style="edgeStyle=orthogonalEdgeStyle;rounded=0;orthogonalLoop=1;jettySize=auto;html=1;exitX=0;exitY=0.5;exitDx=0;exitDy=0;entryX=0.5;entryY=1;entryDx=0;entryDy=0;" edge="1" parent="1" source="S1n4Vc88zPRwupF9Aiys-53" target="S1n4Vc88zPRwupF9Aiys-51">
          <mxGeometry relative="1" as="geometry" />
        </mxCell>
        <mxCell id="S1n4Vc88zPRwupF9Aiys-53" value="" style="ellipse;whiteSpace=wrap;html=1;aspect=fixed;" vertex="1" parent="1">
          <mxGeometry x="634" y="70" width="30" height="30" as="geometry" />
        </mxCell>
        <mxCell id="S1n4Vc88zPRwupF9Aiys-56" style="edgeStyle=orthogonalEdgeStyle;rounded=0;orthogonalLoop=1;jettySize=auto;html=1;exitX=0;exitY=0.5;exitDx=0;exitDy=0;entryX=0.5;entryY=1;entryDx=0;entryDy=0;" edge="1" parent="1" source="S1n4Vc88zPRwupF9Aiys-55" target="S1n4Vc88zPRwupF9Aiys-49">
          <mxGeometry relative="1" as="geometry" />
        </mxCell>
        <mxCell id="S1n4Vc88zPRwupF9Aiys-55" value="" style="ellipse;whiteSpace=wrap;html=1;aspect=fixed;" vertex="1" parent="1">
          <mxGeometry x="634" y="290" width="30" height="30" as="geometry" />
        </mxCell>
        <mxCell id="S1n4Vc88zPRwupF9Aiys-61" style="edgeStyle=orthogonalEdgeStyle;rounded=0;orthogonalLoop=1;jettySize=auto;html=1;exitX=0.5;exitY=0;exitDx=0;exitDy=0;entryX=1;entryY=0.5;entryDx=0;entryDy=0;" edge="1" parent="1" source="S1n4Vc88zPRwupF9Aiys-57" target="S1n4Vc88zPRwupF9Aiys-53">
          <mxGeometry relative="1" as="geometry" />
        </mxCell>
        <mxCell id="S1n4Vc88zPRwupF9Aiys-57" value="" style="rounded=0;whiteSpace=wrap;html=1;gradientColor=none;fillStyle=solid;fillColor=#000000;rotation=-90;" vertex="1" parent="1">
          <mxGeometry x="655" y="75" width="80" height="20" as="geometry" />
        </mxCell>
        <mxCell id="S1n4Vc88zPRwupF9Aiys-59" style="edgeStyle=orthogonalEdgeStyle;rounded=0;orthogonalLoop=1;jettySize=auto;html=1;exitX=0.5;exitY=0;exitDx=0;exitDy=0;entryX=1;entryY=0.5;entryDx=0;entryDy=0;" edge="1" parent="1" source="S1n4Vc88zPRwupF9Aiys-58" target="S1n4Vc88zPRwupF9Aiys-55">
          <mxGeometry relative="1" as="geometry" />
        </mxCell>
        <mxCell id="S1n4Vc88zPRwupF9Aiys-58" value="" style="rounded=0;whiteSpace=wrap;html=1;gradientColor=none;fillStyle=solid;fillColor=#000000;rotation=-90;" vertex="1" parent="1">
          <mxGeometry x="660" y="300" width="80" height="10" as="geometry" />
        </mxCell>
        <mxCell id="S1n4Vc88zPRwupF9Aiys-69" style="rounded=0;orthogonalLoop=1;jettySize=auto;html=1;exitX=0;exitY=0;exitDx=0;exitDy=0;entryX=0.25;entryY=1;entryDx=0;entryDy=0;" edge="1" parent="1" source="S1n4Vc88zPRwupF9Aiys-62" target="S1n4Vc88zPRwupF9Aiys-22">
          <mxGeometry relative="1" as="geometry" />
        </mxCell>
        <mxCell id="S1n4Vc88zPRwupF9Aiys-62" value="1" style="ellipse;whiteSpace=wrap;html=1;aspect=fixed;" vertex="1" parent="1">
          <mxGeometry x="435" y="380" width="30" height="30" as="geometry" />
        </mxCell>
        <mxCell id="S1n4Vc88zPRwupF9Aiys-78" style="rounded=0;orthogonalLoop=1;jettySize=auto;html=1;exitX=1;exitY=0;exitDx=0;exitDy=0;entryX=0.25;entryY=0;entryDx=0;entryDy=0;" edge="1" parent="1" source="S1n4Vc88zPRwupF9Aiys-63" target="S1n4Vc88zPRwupF9Aiys-58">
          <mxGeometry relative="1" as="geometry" />
        </mxCell>
        <mxCell id="S1n4Vc88zPRwupF9Aiys-63" value="" style="ellipse;whiteSpace=wrap;html=1;aspect=fixed;" vertex="1" parent="1">
          <mxGeometry x="634" y="380" width="30" height="30" as="geometry" />
        </mxCell>
        <mxCell id="S1n4Vc88zPRwupF9Aiys-71" style="rounded=0;orthogonalLoop=1;jettySize=auto;html=1;exitX=1;exitY=1;exitDx=0;exitDy=0;entryX=0.75;entryY=0;entryDx=0;entryDy=0;" edge="1" parent="1" source="S1n4Vc88zPRwupF9Aiys-65" target="S1n4Vc88zPRwupF9Aiys-57">
          <mxGeometry relative="1" as="geometry" />
        </mxCell>
        <mxCell id="S1n4Vc88zPRwupF9Aiys-65" value="" style="ellipse;whiteSpace=wrap;html=1;aspect=fixed;" vertex="1" parent="1">
          <mxGeometry x="634" y="-20" width="30" height="30" as="geometry" />
        </mxCell>
        <mxCell id="S1n4Vc88zPRwupF9Aiys-72" style="rounded=0;orthogonalLoop=1;jettySize=auto;html=1;exitX=0;exitY=1;exitDx=0;exitDy=0;entryX=0.75;entryY=1;entryDx=0;entryDy=0;" edge="1" parent="1" source="S1n4Vc88zPRwupF9Aiys-66" target="S1n4Vc88zPRwupF9Aiys-21">
          <mxGeometry relative="1" as="geometry" />
        </mxCell>
        <mxCell id="S1n4Vc88zPRwupF9Aiys-66" value="1" style="ellipse;whiteSpace=wrap;html=1;aspect=fixed;" vertex="1" parent="1">
          <mxGeometry x="435" y="-20" width="30" height="30" as="geometry" />
        </mxCell>
        <mxCell id="S1n4Vc88zPRwupF9Aiys-67" value="" style="ellipse;whiteSpace=wrap;html=1;aspect=fixed;" vertex="1" parent="1">
          <mxGeometry x="535" y="500" width="30" height="30" as="geometry" />
        </mxCell>
        <mxCell id="S1n4Vc88zPRwupF9Aiys-80" value="" style="endArrow=none;html=1;rounded=0;" edge="1" parent="1">
          <mxGeometry width="50" height="50" relative="1" as="geometry">
            <mxPoint x="352" y="255" as="sourcePoint" />
            <mxPoint x="342" y="245" as="targetPoint" />
          </mxGeometry>
        </mxCell>
        <mxCell id="S1n4Vc88zPRwupF9Aiys-81" value="&lt;font style=&quot;font-size: 10px;&quot;&gt;30&lt;/font&gt;" style="text;html=1;strokeColor=none;fillColor=none;align=center;verticalAlign=middle;whiteSpace=wrap;rounded=0;" vertex="1" parent="1">
          <mxGeometry x="324" y="232" width="60" height="30" as="geometry" />
        </mxCell>
        <mxCell id="S1n4Vc88zPRwupF9Aiys-83" value="" style="endArrow=none;html=1;rounded=0;" edge="1" parent="1">
          <mxGeometry width="50" height="50" relative="1" as="geometry">
            <mxPoint x="530" y="254" as="sourcePoint" />
            <mxPoint x="520" y="244" as="targetPoint" />
          </mxGeometry>
        </mxCell>
        <mxCell id="S1n4Vc88zPRwupF9Aiys-84" value="" style="endArrow=none;html=1;rounded=0;" edge="1" parent="1">
          <mxGeometry width="50" height="50" relative="1" as="geometry">
            <mxPoint x="580" y="244" as="sourcePoint" />
            <mxPoint x="570" y="254" as="targetPoint" />
          </mxGeometry>
        </mxCell>
        <mxCell id="S1n4Vc88zPRwupF9Aiys-85" value="" style="endArrow=none;html=1;rounded=0;" edge="1" parent="1">
          <mxGeometry width="50" height="50" relative="1" as="geometry">
            <mxPoint x="536" y="155" as="sourcePoint" />
            <mxPoint x="526" y="165" as="targetPoint" />
          </mxGeometry>
        </mxCell>
        <mxCell id="S1n4Vc88zPRwupF9Aiys-86" value="" style="endArrow=none;html=1;rounded=0;" edge="1" parent="1">
          <mxGeometry width="50" height="50" relative="1" as="geometry">
            <mxPoint x="574" y="165" as="sourcePoint" />
            <mxPoint x="564" y="155" as="targetPoint" />
          </mxGeometry>
        </mxCell>
        <mxCell id="S1n4Vc88zPRwupF9Aiys-91" style="edgeStyle=orthogonalEdgeStyle;rounded=0;orthogonalLoop=1;jettySize=auto;html=1;exitX=0;exitY=0.5;exitDx=0;exitDy=0;entryX=0.5;entryY=1;entryDx=0;entryDy=0;curved=1;" edge="1" parent="1" source="S1n4Vc88zPRwupF9Aiys-88" target="S1n4Vc88zPRwupF9Aiys-57">
          <mxGeometry relative="1" as="geometry">
            <Array as="points">
              <mxPoint x="725" y="195" />
              <mxPoint x="725" y="85" />
            </Array>
          </mxGeometry>
        </mxCell>
        <mxCell id="S1n4Vc88zPRwupF9Aiys-92" style="edgeStyle=orthogonalEdgeStyle;rounded=0;orthogonalLoop=1;jettySize=auto;html=1;exitX=0;exitY=0.5;exitDx=0;exitDy=0;entryX=0.5;entryY=1;entryDx=0;entryDy=0;curved=1;" edge="1" parent="1" source="S1n4Vc88zPRwupF9Aiys-88" target="S1n4Vc88zPRwupF9Aiys-58">
          <mxGeometry relative="1" as="geometry">
            <Array as="points">
              <mxPoint x="725" y="195" />
              <mxPoint x="725" y="305" />
            </Array>
          </mxGeometry>
        </mxCell>
        <mxCell id="S1n4Vc88zPRwupF9Aiys-103" style="edgeStyle=orthogonalEdgeStyle;rounded=0;orthogonalLoop=1;jettySize=auto;html=1;exitX=0.5;exitY=1;exitDx=0;exitDy=0;entryX=0.5;entryY=0;entryDx=0;entryDy=0;curved=1;dashed=1;" edge="1" parent="1" source="S1n4Vc88zPRwupF9Aiys-88" target="S1n4Vc88zPRwupF9Aiys-102">
          <mxGeometry relative="1" as="geometry" />
        </mxCell>
        <mxCell id="S1n4Vc88zPRwupF9Aiys-88" value="" style="ellipse;whiteSpace=wrap;html=1;aspect=fixed;" vertex="1" parent="1">
          <mxGeometry x="735" y="180" width="30" height="30" as="geometry" />
        </mxCell>
        <mxCell id="S1n4Vc88zPRwupF9Aiys-93" value="" style="endArrow=none;html=1;rounded=0;" edge="1" parent="1">
          <mxGeometry width="50" height="50" relative="1" as="geometry">
            <mxPoint x="730" y="255" as="sourcePoint" />
            <mxPoint x="720" y="245" as="targetPoint" />
          </mxGeometry>
        </mxCell>
        <mxCell id="S1n4Vc88zPRwupF9Aiys-94" value="" style="endArrow=none;html=1;rounded=0;" edge="1" parent="1">
          <mxGeometry width="50" height="50" relative="1" as="geometry">
            <mxPoint x="730" y="155" as="sourcePoint" />
            <mxPoint x="720" y="145" as="targetPoint" />
          </mxGeometry>
        </mxCell>
        <mxCell id="S1n4Vc88zPRwupF9Aiys-98" value="&lt;font style=&quot;font-size: 10px;&quot;&gt;n&lt;/font&gt;" style="text;html=1;strokeColor=none;fillColor=none;align=center;verticalAlign=middle;whiteSpace=wrap;rounded=0;" vertex="1" parent="1">
          <mxGeometry x="699" y="231" width="60" height="30" as="geometry" />
        </mxCell>
        <mxCell id="S1n4Vc88zPRwupF9Aiys-99" value="&lt;font style=&quot;font-size: 10px;&quot;&gt;n&lt;/font&gt;" style="text;html=1;strokeColor=none;fillColor=none;align=center;verticalAlign=middle;whiteSpace=wrap;rounded=0;" vertex="1" parent="1">
          <mxGeometry x="699" y="131" width="60" height="30" as="geometry" />
        </mxCell>
        <mxCell id="S1n4Vc88zPRwupF9Aiys-109" style="edgeStyle=orthogonalEdgeStyle;rounded=0;orthogonalLoop=1;jettySize=auto;html=1;exitX=0.5;exitY=0;exitDx=0;exitDy=0;" edge="1" parent="1" source="S1n4Vc88zPRwupF9Aiys-101" target="S1n4Vc88zPRwupF9Aiys-88">
          <mxGeometry relative="1" as="geometry" />
        </mxCell>
        <mxCell id="S1n4Vc88zPRwupF9Aiys-101" value="" style="rounded=0;whiteSpace=wrap;html=1;gradientColor=none;fillStyle=solid;fillColor=#000000;rotation=-90;" vertex="1" parent="1">
          <mxGeometry x="759" y="190" width="80" height="10" as="geometry" />
        </mxCell>
        <mxCell id="S1n4Vc88zPRwupF9Aiys-112" style="rounded=0;orthogonalLoop=1;jettySize=auto;html=1;exitX=0.25;exitY=0;exitDx=0;exitDy=0;entryX=1;entryY=0.5;entryDx=0;entryDy=0;" edge="1" parent="1" source="S1n4Vc88zPRwupF9Aiys-102" target="S1n4Vc88zPRwupF9Aiys-67">
          <mxGeometry relative="1" as="geometry" />
        </mxCell>
        <mxCell id="S1n4Vc88zPRwupF9Aiys-102" value="" style="rounded=0;whiteSpace=wrap;html=1;gradientColor=none;fillStyle=solid;fillColor=#000000;rotation=-90;" vertex="1" parent="1">
          <mxGeometry x="755" y="294" width="80" height="20" as="geometry" />
        </mxCell>
        <mxCell id="S1n4Vc88zPRwupF9Aiys-104" value="" style="endArrow=none;html=1;rounded=0;" edge="1" parent="1">
          <mxGeometry width="50" height="50" relative="1" as="geometry">
            <mxPoint x="747" y="256" as="sourcePoint" />
            <mxPoint x="757" y="246" as="targetPoint" />
          </mxGeometry>
        </mxCell>
        <mxCell id="S1n4Vc88zPRwupF9Aiys-106" value="&lt;font style=&quot;font-size: 10px;&quot;&gt;30&lt;/font&gt;" style="text;html=1;strokeColor=none;fillColor=none;align=center;verticalAlign=middle;whiteSpace=wrap;rounded=0;" vertex="1" parent="1">
          <mxGeometry x="715" y="233" width="60" height="30" as="geometry" />
        </mxCell>
        <mxCell id="S1n4Vc88zPRwupF9Aiys-108" style="edgeStyle=orthogonalEdgeStyle;rounded=0;orthogonalLoop=1;jettySize=auto;html=1;exitX=0;exitY=0.5;exitDx=0;exitDy=0;entryX=0.5;entryY=1;entryDx=0;entryDy=0;" edge="1" parent="1" source="S1n4Vc88zPRwupF9Aiys-107" target="S1n4Vc88zPRwupF9Aiys-101">
          <mxGeometry relative="1" as="geometry" />
        </mxCell>
        <mxCell id="S1n4Vc88zPRwupF9Aiys-111" style="edgeStyle=orthogonalEdgeStyle;rounded=0;orthogonalLoop=1;jettySize=auto;html=1;exitX=0;exitY=1;exitDx=0;exitDy=0;entryX=0.5;entryY=1;entryDx=0;entryDy=0;curved=1;" edge="1" parent="1" source="S1n4Vc88zPRwupF9Aiys-107" target="S1n4Vc88zPRwupF9Aiys-102">
          <mxGeometry relative="1" as="geometry">
            <Array as="points">
              <mxPoint x="825" y="206" />
              <mxPoint x="825" y="304" />
            </Array>
          </mxGeometry>
        </mxCell>
        <mxCell id="S1n4Vc88zPRwupF9Aiys-107" value="" style="ellipse;whiteSpace=wrap;html=1;aspect=fixed;" vertex="1" parent="1">
          <mxGeometry x="835" y="180" width="30" height="30" as="geometry" />
        </mxCell>
        <mxCell id="S1n4Vc88zPRwupF9Aiys-113" value="" style="endArrow=none;html=1;rounded=0;" edge="1" parent="1">
          <mxGeometry width="50" height="50" relative="1" as="geometry">
            <mxPoint x="435" y="420" as="sourcePoint" />
            <mxPoint x="425" y="430" as="targetPoint" />
          </mxGeometry>
        </mxCell>
        <mxCell id="S1n4Vc88zPRwupF9Aiys-115" value="" style="endArrow=none;html=1;rounded=0;" edge="1" parent="1">
          <mxGeometry width="50" height="50" relative="1" as="geometry">
            <mxPoint x="674" y="430" as="sourcePoint" />
            <mxPoint x="664" y="420" as="targetPoint" />
          </mxGeometry>
        </mxCell>
        <mxCell id="S1n4Vc88zPRwupF9Aiys-121" value="1" style="ellipse;whiteSpace=wrap;html=1;aspect=fixed;" vertex="1" parent="1">
          <mxGeometry x="936" y="180" width="30" height="30" as="geometry" />
        </mxCell>
        <mxCell id="S1n4Vc88zPRwupF9Aiys-128" style="edgeStyle=orthogonalEdgeStyle;rounded=0;orthogonalLoop=1;jettySize=auto;html=1;exitX=0.5;exitY=0;exitDx=0;exitDy=0;entryX=1;entryY=0.5;entryDx=0;entryDy=0;" edge="1" parent="1" source="S1n4Vc88zPRwupF9Aiys-123" target="S1n4Vc88zPRwupF9Aiys-107">
          <mxGeometry relative="1" as="geometry" />
        </mxCell>
        <mxCell id="S1n4Vc88zPRwupF9Aiys-123" value="" style="rounded=0;whiteSpace=wrap;html=1;gradientColor=none;fillStyle=solid;fillColor=#000000;rotation=-90;" vertex="1" parent="1">
          <mxGeometry x="860" y="189" width="80" height="10" as="geometry" />
        </mxCell>
        <mxCell id="S1n4Vc88zPRwupF9Aiys-124" value="" style="endArrow=classic;html=1;rounded=0;entryX=0.004;entryY=0.657;entryDx=0;entryDy=0;entryPerimeter=0;exitX=0.431;exitY=0.94;exitDx=0;exitDy=0;exitPerimeter=0;" edge="1" parent="1" source="S1n4Vc88zPRwupF9Aiys-123" target="S1n4Vc88zPRwupF9Aiys-121">
          <mxGeometry width="50" height="50" relative="1" as="geometry">
            <mxPoint x="921" y="245" as="sourcePoint" />
            <mxPoint x="971" y="195" as="targetPoint" />
          </mxGeometry>
        </mxCell>
        <mxCell id="S1n4Vc88zPRwupF9Aiys-127" value="" style="endArrow=classic;html=1;rounded=0;entryX=0.532;entryY=0.979;entryDx=0;entryDy=0;entryPerimeter=0;exitX=0.004;exitY=0.405;exitDx=0;exitDy=0;exitPerimeter=0;" edge="1" parent="1" source="S1n4Vc88zPRwupF9Aiys-121" target="S1n4Vc88zPRwupF9Aiys-123">
          <mxGeometry width="50" height="50" relative="1" as="geometry">
            <mxPoint x="901" y="265" as="sourcePoint" />
            <mxPoint x="951" y="215" as="targetPoint" />
          </mxGeometry>
        </mxCell>
        <mxCell id="S1n4Vc88zPRwupF9Aiys-129" value="&lt;font style=&quot;font-size: 10px;&quot;&gt;t=norm(0.5; 0.2)&lt;/font&gt;" style="text;html=1;strokeColor=none;fillColor=none;align=center;verticalAlign=middle;whiteSpace=wrap;rounded=0;" vertex="1" parent="1">
          <mxGeometry x="860" y="232" width="80" height="20" as="geometry" />
        </mxCell>
        <mxCell id="S1n4Vc88zPRwupF9Aiys-130" value="&lt;font style=&quot;font-size: 10px;&quot;&gt;Надходження пасажирів&lt;/font&gt;" style="text;html=1;strokeColor=none;fillColor=none;align=center;verticalAlign=middle;whiteSpace=wrap;rounded=0;" vertex="1" parent="1">
          <mxGeometry x="860" y="130" width="80" height="20" as="geometry" />
        </mxCell>
        <mxCell id="S1n4Vc88zPRwupF9Aiys-131" value="&lt;font style=&quot;font-size: 10px;&quot;&gt;Посадка/Висадка&lt;/font&gt;" style="text;html=1;strokeColor=none;fillColor=none;align=center;verticalAlign=middle;whiteSpace=wrap;rounded=0;" vertex="1" parent="1">
          <mxGeometry x="354.5" y="25" width="101" height="20" as="geometry" />
        </mxCell>
        <mxCell id="S1n4Vc88zPRwupF9Aiys-132" value="&lt;font style=&quot;font-size: 10px;&quot;&gt;Переїзд&lt;/font&gt;" style="text;html=1;strokeColor=none;fillColor=none;align=center;verticalAlign=middle;whiteSpace=wrap;rounded=0;" vertex="1" parent="1">
          <mxGeometry x="460" y="25" width="80" height="20" as="geometry" />
        </mxCell>
        <mxCell id="S1n4Vc88zPRwupF9Aiys-133" value="&lt;font style=&quot;font-size: 10px;&quot;&gt;Автобус А в пункті №1&lt;/font&gt;" style="text;html=1;strokeColor=none;fillColor=none;align=center;verticalAlign=middle;whiteSpace=wrap;rounded=0;" vertex="1" parent="1">
          <mxGeometry x="410" y="-45" width="80" height="20" as="geometry" />
        </mxCell>
        <mxCell id="S1n4Vc88zPRwupF9Aiys-134" value="&lt;font style=&quot;font-size: 10px;&quot;&gt;Автобус А в пункті №2&lt;/font&gt;" style="text;html=1;strokeColor=none;fillColor=none;align=center;verticalAlign=middle;whiteSpace=wrap;rounded=0;" vertex="1" parent="1">
          <mxGeometry x="609" y="-45" width="80" height="20" as="geometry" />
        </mxCell>
        <mxCell id="S1n4Vc88zPRwupF9Aiys-135" value="&lt;font style=&quot;font-size: 10px;&quot;&gt;Автобус B в пункті №1&lt;/font&gt;" style="text;html=1;strokeColor=none;fillColor=none;align=center;verticalAlign=middle;whiteSpace=wrap;rounded=0;" vertex="1" parent="1">
          <mxGeometry x="455" y="400" width="80" height="20" as="geometry" />
        </mxCell>
        <mxCell id="S1n4Vc88zPRwupF9Aiys-136" value="&lt;font style=&quot;font-size: 10px;&quot;&gt;Автобус B в пункті №2&lt;/font&gt;" style="text;html=1;strokeColor=none;fillColor=none;align=center;verticalAlign=middle;whiteSpace=wrap;rounded=0;" vertex="1" parent="1">
          <mxGeometry x="565" y="400" width="80" height="20" as="geometry" />
        </mxCell>
        <mxCell id="S1n4Vc88zPRwupF9Aiys-137" value="&lt;font style=&quot;font-size: 10px;&quot;&gt;t=norm(20; 5)&lt;/font&gt;" style="text;html=1;strokeColor=none;fillColor=none;align=center;verticalAlign=middle;whiteSpace=wrap;rounded=0;" vertex="1" parent="1">
          <mxGeometry x="575" y="121" width="80" height="20" as="geometry" />
        </mxCell>
        <mxCell id="S1n4Vc88zPRwupF9Aiys-138" value="&lt;font style=&quot;font-size: 10px;&quot;&gt;t=norm(20; 5)&lt;/font&gt;" style="text;html=1;strokeColor=none;fillColor=none;align=center;verticalAlign=middle;whiteSpace=wrap;rounded=0;" vertex="1" parent="1">
          <mxGeometry x="460" y="121" width="80" height="20" as="geometry" />
        </mxCell>
        <mxCell id="S1n4Vc88zPRwupF9Aiys-140" value="&lt;font style=&quot;font-size: 10px;&quot;&gt;t=norm(30; 5)&lt;/font&gt;" style="text;html=1;strokeColor=none;fillColor=none;align=center;verticalAlign=middle;whiteSpace=wrap;rounded=0;" vertex="1" parent="1">
          <mxGeometry x="465" y="340" width="80" height="20" as="geometry" />
        </mxCell>
        <mxCell id="S1n4Vc88zPRwupF9Aiys-141" value="&lt;font style=&quot;font-size: 10px;&quot;&gt;t=norm(30; 5)&lt;/font&gt;" style="text;html=1;strokeColor=none;fillColor=none;align=center;verticalAlign=middle;whiteSpace=wrap;rounded=0;" vertex="1" parent="1">
          <mxGeometry x="565" y="340" width="80" height="20" as="geometry" />
        </mxCell>
        <mxCell id="S1n4Vc88zPRwupF9Aiys-143" value="&lt;font style=&quot;font-size: 10px;&quot;&gt;t=norm(5; 1)&lt;/font&gt;" style="text;html=1;strokeColor=none;fillColor=none;align=center;verticalAlign=middle;whiteSpace=wrap;rounded=0;" vertex="1" parent="1">
          <mxGeometry x="360" y="340" width="80" height="20" as="geometry" />
        </mxCell>
        <mxCell id="S1n4Vc88zPRwupF9Aiys-144" value="&lt;font style=&quot;font-size: 10px;&quot;&gt;t=norm(5; 1)&lt;/font&gt;" style="text;html=1;strokeColor=none;fillColor=none;align=center;verticalAlign=middle;whiteSpace=wrap;rounded=0;" vertex="1" parent="1">
          <mxGeometry x="365" y="121" width="80" height="20" as="geometry" />
        </mxCell>
        <mxCell id="S1n4Vc88zPRwupF9Aiys-145" value="&lt;font style=&quot;font-size: 10px;&quot;&gt;t=norm(5; 1)&lt;/font&gt;" style="text;html=1;strokeColor=none;fillColor=none;align=center;verticalAlign=middle;whiteSpace=wrap;rounded=0;" vertex="1" parent="1">
          <mxGeometry x="655" y="121" width="80" height="20" as="geometry" />
        </mxCell>
        <mxCell id="S1n4Vc88zPRwupF9Aiys-146" value="&lt;font style=&quot;font-size: 10px;&quot;&gt;t=norm(5; 1)&lt;/font&gt;" style="text;html=1;strokeColor=none;fillColor=none;align=center;verticalAlign=middle;whiteSpace=wrap;rounded=0;" vertex="1" parent="1">
          <mxGeometry x="660" y="340" width="80" height="20" as="geometry" />
        </mxCell>
        <mxCell id="S1n4Vc88zPRwupF9Aiys-147" value="&lt;font style=&quot;font-size: 10px;&quot;&gt;n*20&lt;/font&gt;" style="text;html=1;strokeColor=none;fillColor=none;align=center;verticalAlign=middle;whiteSpace=wrap;rounded=0;" vertex="1" parent="1">
          <mxGeometry x="488" y="141" width="60" height="30" as="geometry" />
        </mxCell>
        <mxCell id="S1n4Vc88zPRwupF9Aiys-148" value="&lt;font style=&quot;font-size: 10px;&quot;&gt;n*20&lt;/font&gt;" style="text;html=1;strokeColor=none;fillColor=none;align=center;verticalAlign=middle;whiteSpace=wrap;rounded=0;" vertex="1" parent="1">
          <mxGeometry x="552" y="141" width="60" height="30" as="geometry" />
        </mxCell>
        <mxCell id="S1n4Vc88zPRwupF9Aiys-149" value="&lt;font style=&quot;font-size: 10px;&quot;&gt;n*20&lt;/font&gt;" style="text;html=1;strokeColor=none;fillColor=none;align=center;verticalAlign=middle;whiteSpace=wrap;rounded=0;" vertex="1" parent="1">
          <mxGeometry x="558" y="234" width="60" height="30" as="geometry" />
        </mxCell>
        <mxCell id="S1n4Vc88zPRwupF9Aiys-150" value="&lt;font style=&quot;font-size: 10px;&quot;&gt;n*20&lt;/font&gt;" style="text;html=1;strokeColor=none;fillColor=none;align=center;verticalAlign=middle;whiteSpace=wrap;rounded=0;" vertex="1" parent="1">
          <mxGeometry x="482" y="234" width="60" height="30" as="geometry" />
        </mxCell>
        <mxCell id="S1n4Vc88zPRwupF9Aiys-151" value="Втрачено &#xa;грошей" style="text;whiteSpace=wrap;fontSize=10;align=center;" vertex="1" parent="1">
          <mxGeometry x="523.5" y="470" width="53" height="40" as="geometry" />
        </mxCell>
        <mxCell id="S1n4Vc88zPRwupF9Aiys-152" value="&lt;font style=&quot;font-size: 10px;&quot;&gt;20&lt;/font&gt;" style="text;html=1;strokeColor=none;fillColor=none;align=center;verticalAlign=middle;whiteSpace=wrap;rounded=0;" vertex="1" parent="1">
          <mxGeometry x="649" y="409" width="60" height="30" as="geometry" />
        </mxCell>
        <mxCell id="S1n4Vc88zPRwupF9Aiys-153" value="&lt;font style=&quot;font-size: 10px;&quot;&gt;20&lt;/font&gt;" style="text;html=1;strokeColor=none;fillColor=none;align=center;verticalAlign=middle;whiteSpace=wrap;rounded=0;" vertex="1" parent="1">
          <mxGeometry x="391" y="409" width="60" height="30" as="geometry" />
        </mxCell>
      </root>
    </mxGraphModel>
  </diagram>
</mxfile>
